<mxfile host="app.diagrams.net" agent="Mozilla/5.0 (Windows NT 10.0; Win64; x64; rv:139.0) Gecko/20100101 Firefox/139.0" version="27.1.6" pages="2">
  <diagram name="Page-1" id="CsaCU7l57D1G4LR3KXsI">
    <mxGraphModel dx="1310" dy="785" grid="1" gridSize="10" guides="1" tooltips="1" connect="1" arrows="1" fold="1" page="1" pageScale="1" pageWidth="3300" pageHeight="4681" math="0" shadow="0">
      <root>
        <mxCell id="0" />
        <mxCell id="1" parent="0" />
        <mxCell id="HTi8NTZAB4kmOLBcCDnO-45" value="1d Interpret results with SOFLP" style="text;html=1;align=left;verticalAlign=top;whiteSpace=wrap;rounded=0;dashed=1;fillColor=#f5f5f5;fontColor=#333333;strokeColor=#666666;strokeWidth=2;fontFamily=Helvetica;fontSize=12;horizontal=1;" parent="1" name="text" vertex="1">
          <mxGeometry x="980" y="570" width="300" height="180" as="geometry" />
        </mxCell>
        <mxCell id="HTi8NTZAB4kmOLBcCDnO-44" value="&lt;div&gt;2d Multi-classification for Pain Levels&lt;/div&gt;" style="text;html=1;align=left;verticalAlign=top;whiteSpace=wrap;rounded=0;dashed=1;fillColor=#f5f5f5;fontColor=#333333;strokeColor=#666666;strokeWidth=2;horizontal=1;" parent="1" name="text" vertex="1">
          <mxGeometry x="650" y="650" width="320" height="140" as="geometry" />
        </mxCell>
        <mxCell id="HTi8NTZAB4kmOLBcCDnO-43" value="1a Create Fuzzy Rules" style="text;html=1;align=left;verticalAlign=top;whiteSpace=wrap;rounded=0;dashed=1;fillColor=#f5f5f5;fontColor=#333333;strokeColor=#666666;strokeWidth=2;horizontal=1;" parent="1" name="text" vertex="1">
          <mxGeometry x="310" y="650" width="330" height="110" as="geometry" />
        </mxCell>
        <mxCell id="HTi8NTZAB4kmOLBcCDnO-42" value="&lt;div align=&quot;left&quot;&gt;1d Feature extraction&lt;/div&gt;&amp;nbsp;with CCSO" style="text;html=1;align=left;verticalAlign=top;whiteSpace=wrap;rounded=0;dashed=1;fillColor=#f5f5f5;fontColor=#333333;strokeColor=#666666;strokeWidth=2;fontFamily=Helvetica;fontSize=12;horizontal=1;" parent="1" name="text" vertex="1">
          <mxGeometry x="150" y="470" width="150" height="290" as="geometry" />
        </mxCell>
        <mxCell id="HTi8NTZAB4kmOLBcCDnO-41" value="&lt;div&gt;1d SMOTE&lt;/div&gt;" style="text;html=1;align=left;verticalAlign=top;whiteSpace=wrap;rounded=0;dashed=1;fillColor=#f5f5f5;fontColor=#333333;strokeColor=#666666;strokeWidth=2;horizontal=1;" parent="1" name="text" vertex="1">
          <mxGeometry x="310" y="470" width="330" height="110" as="geometry" />
        </mxCell>
        <mxCell id="HTi8NTZAB4kmOLBcCDnO-37" value="&lt;div align=&quot;left&quot;&gt;1d Feature extraction&lt;/div&gt;" style="text;html=1;align=left;verticalAlign=top;whiteSpace=wrap;rounded=0;dashed=1;fillColor=#f5f5f5;fontColor=#333333;strokeColor=#666666;strokeWidth=2;fontFamily=Helvetica;fontSize=12;horizontal=1;" parent="1" name="text" vertex="1">
          <mxGeometry x="650" y="290" width="140" height="290" as="geometry" />
        </mxCell>
        <mxCell id="HTi8NTZAB4kmOLBcCDnO-34" value="&lt;div&gt;1d Pre-processing&lt;/div&gt;" style="text;html=1;align=left;verticalAlign=top;whiteSpace=wrap;rounded=0;dashed=1;fillColor=#f5f5f5;fontColor=#333333;strokeColor=#666666;strokeWidth=2;horizontal=1;" parent="1" name="text" vertex="1">
          <mxGeometry x="310" y="290" width="330" height="110" as="geometry" />
        </mxCell>
        <mxCell id="HTi8NTZAB4kmOLBcCDnO-36" style="edgeStyle=orthogonalEdgeStyle;rounded=0;orthogonalLoop=1;jettySize=auto;html=1;entryX=0;entryY=0.5;entryDx=0;entryDy=0;" parent="1" source="HTi8NTZAB4kmOLBcCDnO-1" target="HTi8NTZAB4kmOLBcCDnO-2" edge="1">
          <mxGeometry relative="1" as="geometry" />
        </mxCell>
        <mxCell id="HTi8NTZAB4kmOLBcCDnO-1" value="data:image&#xa;Raw fMRI Scans" style="rectangle;fillColor=#fff2cc;strokeColor=#d6b656;" parent="1" name="data" vertex="1">
          <mxGeometry x="250" y="320" width="100" height="50" as="geometry" />
        </mxCell>
        <mxCell id="HTi8NTZAB4kmOLBcCDnO-5" style="edgeStyle=orthogonalEdgeStyle;rounded=0;orthogonalLoop=1;jettySize=auto;html=1;entryX=0;entryY=0.5;entryDx=0;entryDy=0;" parent="1" source="HTi8NTZAB4kmOLBcCDnO-2" target="HTi8NTZAB4kmOLBcCDnO-3" edge="1">
          <mxGeometry relative="1" as="geometry" />
        </mxCell>
        <mxCell id="HTi8NTZAB4kmOLBcCDnO-2" value="transform:embed" style="rounded=1;whiteSpace=wrap;html=1;arcSize=50;fillColor=#f8cecc;strokeColor=#b85450;" parent="1" name="transform" vertex="1">
          <mxGeometry x="420" y="320" width="100" height="50" as="geometry" />
        </mxCell>
        <mxCell id="HTi8NTZAB4kmOLBcCDnO-39" style="edgeStyle=orthogonalEdgeStyle;rounded=0;orthogonalLoop=1;jettySize=auto;html=1;exitX=1;exitY=0.5;exitDx=0;exitDy=0;entryX=0.5;entryY=0;entryDx=0;entryDy=0;fontFamily=Helvetica;fontSize=12;fontColor=#333333;horizontal=1;" parent="1" source="HTi8NTZAB4kmOLBcCDnO-3" target="HTi8NTZAB4kmOLBcCDnO-6" edge="1">
          <mxGeometry relative="1" as="geometry" />
        </mxCell>
        <mxCell id="HTi8NTZAB4kmOLBcCDnO-3" value="data:image&#xa;Normalized fMRI&#xa;Scans" style="rectangle;fillColor=#fff2cc;strokeColor=#d6b656;" parent="1" name="data" vertex="1">
          <mxGeometry x="590" y="320" width="100" height="50" as="geometry" />
        </mxCell>
        <mxCell id="HTi8NTZAB4kmOLBcCDnO-10" style="edgeStyle=orthogonalEdgeStyle;rounded=0;orthogonalLoop=1;jettySize=auto;html=1;exitX=0.5;exitY=1;exitDx=0;exitDy=0;entryX=1;entryY=0.5;entryDx=0;entryDy=0;" parent="1" source="HTi8NTZAB4kmOLBcCDnO-6" target="HTi8NTZAB4kmOLBcCDnO-9" edge="1">
          <mxGeometry relative="1" as="geometry" />
        </mxCell>
        <mxCell id="HTi8NTZAB4kmOLBcCDnO-6" value="transform:embed" style="rounded=1;whiteSpace=wrap;html=1;arcSize=50;fillColor=#f8cecc;strokeColor=#b85450;" parent="1" name="transform" vertex="1">
          <mxGeometry x="690" y="410" width="100" height="50" as="geometry" />
        </mxCell>
        <mxCell id="HTi8NTZAB4kmOLBcCDnO-12" style="edgeStyle=orthogonalEdgeStyle;rounded=0;orthogonalLoop=1;jettySize=auto;html=1;exitX=0;exitY=0.5;exitDx=0;exitDy=0;entryX=1;entryY=0.5;entryDx=0;entryDy=0;" parent="1" source="HTi8NTZAB4kmOLBcCDnO-9" target="HTi8NTZAB4kmOLBcCDnO-11" edge="1">
          <mxGeometry relative="1" as="geometry" />
        </mxCell>
        <mxCell id="HTi8NTZAB4kmOLBcCDnO-9" value="data:numeric&#xa;Features of Brain&#xa;Activity Patterns" style="rectangle;fillColor=#fff2cc;strokeColor=#d6b656;" parent="1" name="data" vertex="1">
          <mxGeometry x="590" y="500" width="100" height="50" as="geometry" />
        </mxCell>
        <mxCell id="HTi8NTZAB4kmOLBcCDnO-14" style="edgeStyle=orthogonalEdgeStyle;rounded=0;orthogonalLoop=1;jettySize=auto;html=1;entryX=1;entryY=0.5;entryDx=0;entryDy=0;" parent="1" source="HTi8NTZAB4kmOLBcCDnO-11" target="HTi8NTZAB4kmOLBcCDnO-13" edge="1">
          <mxGeometry relative="1" as="geometry" />
        </mxCell>
        <mxCell id="HTi8NTZAB4kmOLBcCDnO-11" value="transform:embed" style="rounded=1;whiteSpace=wrap;html=1;arcSize=50;fillColor=#f8cecc;strokeColor=#b85450;" parent="1" name="transform" vertex="1">
          <mxGeometry x="420" y="500" width="100" height="50" as="geometry" />
        </mxCell>
        <mxCell id="HTi8NTZAB4kmOLBcCDnO-16" style="edgeStyle=orthogonalEdgeStyle;rounded=0;orthogonalLoop=1;jettySize=auto;html=1;exitX=0;exitY=0.5;exitDx=0;exitDy=0;entryX=0.5;entryY=0;entryDx=0;entryDy=0;" parent="1" source="HTi8NTZAB4kmOLBcCDnO-13" target="HTi8NTZAB4kmOLBcCDnO-15" edge="1">
          <mxGeometry relative="1" as="geometry" />
        </mxCell>
        <mxCell id="HTi8NTZAB4kmOLBcCDnO-13" value="data:numeric&#xa;Balanced Set" style="rectangle;fillColor=#fff2cc;strokeColor=#d6b656;" parent="1" name="data" vertex="1">
          <mxGeometry x="250" y="500" width="100" height="50" as="geometry" />
        </mxCell>
        <mxCell id="HTi8NTZAB4kmOLBcCDnO-18" style="edgeStyle=orthogonalEdgeStyle;rounded=0;orthogonalLoop=1;jettySize=auto;html=1;exitX=0.5;exitY=1;exitDx=0;exitDy=0;entryX=0;entryY=0.5;entryDx=0;entryDy=0;" parent="1" source="HTi8NTZAB4kmOLBcCDnO-15" target="HTi8NTZAB4kmOLBcCDnO-17" edge="1">
          <mxGeometry relative="1" as="geometry" />
        </mxCell>
        <mxCell id="HTi8NTZAB4kmOLBcCDnO-15" value="transform:embed" style="rounded=1;whiteSpace=wrap;html=1;arcSize=50;fillColor=#f8cecc;strokeColor=#b85450;" parent="1" name="transform" vertex="1">
          <mxGeometry x="150" y="590" width="100" height="50" as="geometry" />
        </mxCell>
        <mxCell id="HTi8NTZAB4kmOLBcCDnO-20" style="edgeStyle=orthogonalEdgeStyle;rounded=0;orthogonalLoop=1;jettySize=auto;html=1;entryX=0;entryY=0.5;entryDx=0;entryDy=0;" parent="1" source="HTi8NTZAB4kmOLBcCDnO-17" target="HTi8NTZAB4kmOLBcCDnO-19" edge="1">
          <mxGeometry relative="1" as="geometry" />
        </mxCell>
        <mxCell id="HTi8NTZAB4kmOLBcCDnO-17" value="data:numeric&#xa;Features Pain&#xa;Levels" style="rectangle;fillColor=#fff2cc;strokeColor=#d6b656;" parent="1" name="data" vertex="1">
          <mxGeometry x="250" y="680" width="100" height="50" as="geometry" />
        </mxCell>
        <mxCell id="HTi8NTZAB4kmOLBcCDnO-22" style="edgeStyle=orthogonalEdgeStyle;rounded=0;orthogonalLoop=1;jettySize=auto;html=1;exitX=1;exitY=0.5;exitDx=0;exitDy=0;entryX=0;entryY=0.5;entryDx=0;entryDy=0;" parent="1" source="HTi8NTZAB4kmOLBcCDnO-19" target="HTi8NTZAB4kmOLBcCDnO-21" edge="1">
          <mxGeometry relative="1" as="geometry" />
        </mxCell>
        <mxCell id="HTi8NTZAB4kmOLBcCDnO-19" value="generate:train" style="rounded=1;whiteSpace=wrap;html=1;arcSize=50;fillColor=#e1d5e7;strokeColor=#9673a6;" parent="1" name="generate:train" vertex="1">
          <mxGeometry x="420" y="680" width="100" height="50" as="geometry" />
        </mxCell>
        <mxCell id="HTi8NTZAB4kmOLBcCDnO-24" style="edgeStyle=orthogonalEdgeStyle;rounded=0;orthogonalLoop=1;jettySize=auto;html=1;exitX=1;exitY=0.5;exitDx=0;exitDy=0;entryX=0;entryY=0.5;entryDx=0;entryDy=0;" parent="1" source="HTi8NTZAB4kmOLBcCDnO-21" target="HTi8NTZAB4kmOLBcCDnO-23" edge="1">
          <mxGeometry relative="1" as="geometry" />
        </mxCell>
        <mxCell id="HTi8NTZAB4kmOLBcCDnO-21" value="model:semantic&#xa;CCSO-SOFLP" style="shape=hexagon;perimeter=hexagonPerimeter2;fillColor=#b0e3e6;strokeColor=#0e8088;" parent="1" name="model" vertex="1">
          <mxGeometry x="580" y="680" width="120" height="50" as="geometry" />
        </mxCell>
        <mxCell id="HTi8NTZAB4kmOLBcCDnO-23" value="infer:deduce" style="rounded=1;whiteSpace=wrap;html=1;arcSize=50;fillColor=#bac8d3;strokeColor=#23445d;" parent="1" name="infer:deduce" vertex="1">
          <mxGeometry x="760" y="680" width="100" height="50" as="geometry" />
        </mxCell>
        <mxCell id="HTi8NTZAB4kmOLBcCDnO-31" style="edgeStyle=orthogonalEdgeStyle;rounded=0;orthogonalLoop=1;jettySize=auto;html=1;entryX=0.5;entryY=1;entryDx=0;entryDy=0;" parent="1" source="HTi8NTZAB4kmOLBcCDnO-25" target="HTi8NTZAB4kmOLBcCDnO-30" edge="1">
          <mxGeometry relative="1" as="geometry" />
        </mxCell>
        <mxCell id="HTi8NTZAB4kmOLBcCDnO-25" value="data&#xa;Pain Levels" style="rectangle;fillColor=#fff2cc;strokeColor=#d6b656;" parent="1" name="data" vertex="1" tooltip="⚠️ Node not part of any valid pattern.">
          <mxGeometry x="920" y="680" width="100" height="50" as="geometry" />
        </mxCell>
        <mxCell id="HTi8NTZAB4kmOLBcCDnO-28" style="edgeStyle=orthogonalEdgeStyle;rounded=0;orthogonalLoop=1;jettySize=auto;html=1;exitX=0.5;exitY=0;exitDx=0;exitDy=0;entryX=0.5;entryY=1;entryDx=0;entryDy=0;" parent="1" source="HTi8NTZAB4kmOLBcCDnO-27" target="HTi8NTZAB4kmOLBcCDnO-23" edge="1">
          <mxGeometry relative="1" as="geometry" />
        </mxCell>
        <mxCell id="HTi8NTZAB4kmOLBcCDnO-27" value="data:images&#xa;fMRI Images" style="rectangle;fillColor=#fff2cc;strokeColor=#d6b656;" parent="1" name="data" vertex="1">
          <mxGeometry x="760" y="770" width="100" height="50" as="geometry" />
        </mxCell>
        <mxCell id="HTi8NTZAB4kmOLBcCDnO-30" value="transform:embed" style="rounded=1;whiteSpace=wrap;html=1;arcSize=50;fillColor=#f8cecc;strokeColor=#b85450;" parent="1" name="transform" vertex="1" tooltip="⚠️ Node not part of any valid pattern.">
          <mxGeometry x="1080" y="600" width="100" height="50" as="geometry" />
        </mxCell>
        <mxCell id="HTi8NTZAB4kmOLBcCDnO-32" value="symbol&#xa;Pain Levels" style="rectangle;fillColor=#dae8fc;strokeColor=#6c8ebf;" parent="1" name="symbol" vertex="1" tooltip="⚠️ Node not part of any valid pattern.">
          <mxGeometry x="1240" y="600" width="100" height="50" as="geometry" />
        </mxCell>
        <mxCell id="HTi8NTZAB4kmOLBcCDnO-46" value="&lt;div&gt;error&lt;/div&gt;--&amp;gt;" style="text;html=1;align=center;verticalAlign=middle;whiteSpace=wrap;rounded=0;dashed=1;fillColor=#f5f5f5;fontColor=#333333;strokeColor=#666666;strokeWidth=2;fontFamily=Helvetica;fontSize=12;horizontal=1;" parent="1" name="text" vertex="1">
          <mxGeometry x="860" y="690" width="60" height="30" as="geometry" />
        </mxCell>
        <mxCell id="fM1oW1QHbbRXDgLKECpT-2" value="&lt;div&gt;error&lt;/div&gt;&lt;div&gt;--&amp;gt;&lt;/div&gt;" style="text;html=1;align=center;verticalAlign=middle;whiteSpace=wrap;rounded=0;dashed=1;fillColor=#f5f5f5;fontColor=#333333;strokeColor=#666666;strokeWidth=2;fontFamily=Helvetica;fontSize=12;horizontal=1;" parent="1" name="text" vertex="1">
          <mxGeometry x="1180" y="610" width="60" height="30" as="geometry" />
        </mxCell>
      </root>
    </mxGraphModel>
  </diagram>
  <diagram name="Copy of Page-1" id="lrpOipH0Yhko7RT5fUM-">
    <mxGraphModel dx="1429" dy="856" grid="1" gridSize="10" guides="1" tooltips="1" connect="1" arrows="1" fold="1" page="1" pageScale="1" pageWidth="3300" pageHeight="4681" math="0" shadow="0">
      <root>
        <mxCell id="4rnoqBLfBF95VHf1nh43-0" />
        <mxCell id="4rnoqBLfBF95VHf1nh43-1" parent="4rnoqBLfBF95VHf1nh43-0" />
        <mxCell id="4rnoqBLfBF95VHf1nh43-2" value="1d Interpret results with SOFLP" style="text;html=1;align=left;verticalAlign=top;whiteSpace=wrap;rounded=0;dashed=1;fillColor=#f5f5f5;fontColor=#333333;strokeColor=#666666;strokeWidth=2;fontFamily=Helvetica;fontSize=12;horizontal=1;" name="text" vertex="1" parent="4rnoqBLfBF95VHf1nh43-1">
          <mxGeometry x="980" y="570" width="300" height="180" as="geometry" />
        </mxCell>
        <mxCell id="4rnoqBLfBF95VHf1nh43-3" value="&lt;div&gt;2d Multi-classification for Pain Levels&lt;/div&gt;" style="text;html=1;align=left;verticalAlign=top;whiteSpace=wrap;rounded=0;dashed=1;fillColor=#f5f5f5;fontColor=#333333;strokeColor=#666666;strokeWidth=2;horizontal=1;" name="text" vertex="1" parent="4rnoqBLfBF95VHf1nh43-1">
          <mxGeometry x="650" y="650" width="320" height="140" as="geometry" />
        </mxCell>
        <mxCell id="4rnoqBLfBF95VHf1nh43-4" value="1a Create Fuzzy Rules" style="text;html=1;align=left;verticalAlign=top;whiteSpace=wrap;rounded=0;dashed=1;fillColor=#f5f5f5;fontColor=#333333;strokeColor=#666666;strokeWidth=2;horizontal=1;" name="text" vertex="1" parent="4rnoqBLfBF95VHf1nh43-1">
          <mxGeometry x="310" y="650" width="330" height="110" as="geometry" />
        </mxCell>
        <mxCell id="4rnoqBLfBF95VHf1nh43-5" value="&lt;div align=&quot;left&quot;&gt;1d Feature extraction&lt;/div&gt;&amp;nbsp;with CCSO" style="text;html=1;align=left;verticalAlign=top;whiteSpace=wrap;rounded=0;dashed=1;fillColor=#f5f5f5;fontColor=#333333;strokeColor=#666666;strokeWidth=2;fontFamily=Helvetica;fontSize=12;horizontal=1;" name="text" vertex="1" parent="4rnoqBLfBF95VHf1nh43-1">
          <mxGeometry x="150" y="470" width="150" height="290" as="geometry" />
        </mxCell>
        <mxCell id="4rnoqBLfBF95VHf1nh43-6" value="&lt;div&gt;1d SMOTE&lt;/div&gt;" style="text;html=1;align=left;verticalAlign=top;whiteSpace=wrap;rounded=0;dashed=1;fillColor=#f5f5f5;fontColor=#333333;strokeColor=#666666;strokeWidth=2;horizontal=1;" name="text" vertex="1" parent="4rnoqBLfBF95VHf1nh43-1">
          <mxGeometry x="310" y="470" width="330" height="110" as="geometry" />
        </mxCell>
        <mxCell id="4rnoqBLfBF95VHf1nh43-7" value="&lt;div align=&quot;left&quot;&gt;1d Feature extraction&lt;/div&gt;" style="text;html=1;align=left;verticalAlign=top;whiteSpace=wrap;rounded=0;dashed=1;fillColor=#f5f5f5;fontColor=#333333;strokeColor=#666666;strokeWidth=2;fontFamily=Helvetica;fontSize=12;horizontal=1;" name="text" vertex="1" parent="4rnoqBLfBF95VHf1nh43-1">
          <mxGeometry x="650" y="290" width="140" height="290" as="geometry" />
        </mxCell>
        <mxCell id="4rnoqBLfBF95VHf1nh43-8" value="&lt;div&gt;1d Pre-processing&lt;/div&gt;" style="text;html=1;align=left;verticalAlign=top;whiteSpace=wrap;rounded=0;dashed=1;fillColor=#f5f5f5;fontColor=#333333;strokeColor=#666666;strokeWidth=2;horizontal=1;" name="text" vertex="1" parent="4rnoqBLfBF95VHf1nh43-1">
          <mxGeometry x="310" y="290" width="330" height="110" as="geometry" />
        </mxCell>
        <mxCell id="4rnoqBLfBF95VHf1nh43-9" style="edgeStyle=orthogonalEdgeStyle;rounded=0;orthogonalLoop=1;jettySize=auto;html=1;entryX=0;entryY=0.5;entryDx=0;entryDy=0;" edge="1" parent="4rnoqBLfBF95VHf1nh43-1" source="4rnoqBLfBF95VHf1nh43-10" target="4rnoqBLfBF95VHf1nh43-12">
          <mxGeometry relative="1" as="geometry" />
        </mxCell>
        <mxCell id="4rnoqBLfBF95VHf1nh43-10" value="data:image&#xa;Raw fMRI Scans" style="rectangle;fillColor=#fff2cc;strokeColor=#d6b656;" name="data" vertex="1" parent="4rnoqBLfBF95VHf1nh43-1">
          <mxGeometry x="250" y="320" width="100" height="50" as="geometry" />
        </mxCell>
        <mxCell id="4rnoqBLfBF95VHf1nh43-11" style="edgeStyle=orthogonalEdgeStyle;rounded=0;orthogonalLoop=1;jettySize=auto;html=1;entryX=0;entryY=0.5;entryDx=0;entryDy=0;" edge="1" parent="4rnoqBLfBF95VHf1nh43-1" source="4rnoqBLfBF95VHf1nh43-12" target="4rnoqBLfBF95VHf1nh43-14">
          <mxGeometry relative="1" as="geometry" />
        </mxCell>
        <mxCell id="4rnoqBLfBF95VHf1nh43-12" value="transform:embed" style="rounded=1;whiteSpace=wrap;html=1;arcSize=50;fillColor=#f8cecc;strokeColor=#b85450;" name="transform" vertex="1" parent="4rnoqBLfBF95VHf1nh43-1">
          <mxGeometry x="420" y="320" width="100" height="50" as="geometry" />
        </mxCell>
        <mxCell id="4rnoqBLfBF95VHf1nh43-13" style="edgeStyle=orthogonalEdgeStyle;rounded=0;orthogonalLoop=1;jettySize=auto;html=1;exitX=1;exitY=0.5;exitDx=0;exitDy=0;entryX=0.5;entryY=0;entryDx=0;entryDy=0;fontFamily=Helvetica;fontSize=12;fontColor=#333333;horizontal=1;" edge="1" parent="4rnoqBLfBF95VHf1nh43-1" source="4rnoqBLfBF95VHf1nh43-14" target="4rnoqBLfBF95VHf1nh43-16">
          <mxGeometry relative="1" as="geometry" />
        </mxCell>
        <mxCell id="4rnoqBLfBF95VHf1nh43-14" value="data:image&#xa;Normalized fMRI&#xa;Scans" style="rectangle;fillColor=#fff2cc;strokeColor=#d6b656;" name="data" vertex="1" parent="4rnoqBLfBF95VHf1nh43-1">
          <mxGeometry x="590" y="320" width="100" height="50" as="geometry" />
        </mxCell>
        <mxCell id="4rnoqBLfBF95VHf1nh43-15" style="edgeStyle=orthogonalEdgeStyle;rounded=0;orthogonalLoop=1;jettySize=auto;html=1;exitX=0.5;exitY=1;exitDx=0;exitDy=0;entryX=1;entryY=0.5;entryDx=0;entryDy=0;" edge="1" parent="4rnoqBLfBF95VHf1nh43-1" source="4rnoqBLfBF95VHf1nh43-16" target="4rnoqBLfBF95VHf1nh43-18">
          <mxGeometry relative="1" as="geometry" />
        </mxCell>
        <mxCell id="4rnoqBLfBF95VHf1nh43-16" value="transform:embed" style="rounded=1;whiteSpace=wrap;html=1;arcSize=50;fillColor=#f8cecc;strokeColor=#b85450;" name="transform" vertex="1" parent="4rnoqBLfBF95VHf1nh43-1">
          <mxGeometry x="690" y="410" width="100" height="50" as="geometry" />
        </mxCell>
        <mxCell id="4rnoqBLfBF95VHf1nh43-17" style="edgeStyle=orthogonalEdgeStyle;rounded=0;orthogonalLoop=1;jettySize=auto;html=1;exitX=0;exitY=0.5;exitDx=0;exitDy=0;entryX=1;entryY=0.5;entryDx=0;entryDy=0;" edge="1" parent="4rnoqBLfBF95VHf1nh43-1" source="4rnoqBLfBF95VHf1nh43-18" target="4rnoqBLfBF95VHf1nh43-20">
          <mxGeometry relative="1" as="geometry" />
        </mxCell>
        <mxCell id="4rnoqBLfBF95VHf1nh43-18" value="data:numeric&#xa;Features of Brain&#xa;Activity Patterns" style="rectangle;fillColor=#fff2cc;strokeColor=#d6b656;" name="data" vertex="1" parent="4rnoqBLfBF95VHf1nh43-1">
          <mxGeometry x="590" y="500" width="100" height="50" as="geometry" />
        </mxCell>
        <mxCell id="4rnoqBLfBF95VHf1nh43-19" style="edgeStyle=orthogonalEdgeStyle;rounded=0;orthogonalLoop=1;jettySize=auto;html=1;entryX=1;entryY=0.5;entryDx=0;entryDy=0;" edge="1" parent="4rnoqBLfBF95VHf1nh43-1" source="4rnoqBLfBF95VHf1nh43-20" target="4rnoqBLfBF95VHf1nh43-22">
          <mxGeometry relative="1" as="geometry" />
        </mxCell>
        <mxCell id="4rnoqBLfBF95VHf1nh43-20" value="transform:embed" style="rounded=1;whiteSpace=wrap;html=1;arcSize=50;fillColor=#f8cecc;strokeColor=#b85450;" name="transform" vertex="1" parent="4rnoqBLfBF95VHf1nh43-1">
          <mxGeometry x="420" y="500" width="100" height="50" as="geometry" />
        </mxCell>
        <mxCell id="4rnoqBLfBF95VHf1nh43-21" style="edgeStyle=orthogonalEdgeStyle;rounded=0;orthogonalLoop=1;jettySize=auto;html=1;exitX=0;exitY=0.5;exitDx=0;exitDy=0;entryX=0.5;entryY=0;entryDx=0;entryDy=0;" edge="1" parent="4rnoqBLfBF95VHf1nh43-1" source="4rnoqBLfBF95VHf1nh43-22" target="4rnoqBLfBF95VHf1nh43-24">
          <mxGeometry relative="1" as="geometry" />
        </mxCell>
        <mxCell id="4rnoqBLfBF95VHf1nh43-22" value="data:numeric&#xa;Balanced Set" style="rectangle;fillColor=#fff2cc;strokeColor=#d6b656;" name="data" vertex="1" parent="4rnoqBLfBF95VHf1nh43-1">
          <mxGeometry x="250" y="500" width="100" height="50" as="geometry" />
        </mxCell>
        <mxCell id="4rnoqBLfBF95VHf1nh43-23" style="edgeStyle=orthogonalEdgeStyle;rounded=0;orthogonalLoop=1;jettySize=auto;html=1;exitX=0.5;exitY=1;exitDx=0;exitDy=0;entryX=0;entryY=0.5;entryDx=0;entryDy=0;" edge="1" parent="4rnoqBLfBF95VHf1nh43-1" source="4rnoqBLfBF95VHf1nh43-24" target="4rnoqBLfBF95VHf1nh43-26">
          <mxGeometry relative="1" as="geometry" />
        </mxCell>
        <mxCell id="4rnoqBLfBF95VHf1nh43-24" value="transform:embed" style="rounded=1;whiteSpace=wrap;html=1;arcSize=50;fillColor=#f8cecc;strokeColor=#b85450;" name="transform" vertex="1" parent="4rnoqBLfBF95VHf1nh43-1">
          <mxGeometry x="150" y="590" width="100" height="50" as="geometry" />
        </mxCell>
        <mxCell id="4rnoqBLfBF95VHf1nh43-25" style="edgeStyle=orthogonalEdgeStyle;rounded=0;orthogonalLoop=1;jettySize=auto;html=1;entryX=0;entryY=0.5;entryDx=0;entryDy=0;" edge="1" parent="4rnoqBLfBF95VHf1nh43-1" source="4rnoqBLfBF95VHf1nh43-26" target="4rnoqBLfBF95VHf1nh43-28">
          <mxGeometry relative="1" as="geometry" />
        </mxCell>
        <mxCell id="4rnoqBLfBF95VHf1nh43-26" value="data:numeric&#xa;Features Pain&#xa;Levels" style="rectangle;fillColor=#fff2cc;strokeColor=#d6b656;" name="data" vertex="1" parent="4rnoqBLfBF95VHf1nh43-1">
          <mxGeometry x="250" y="680" width="100" height="50" as="geometry" />
        </mxCell>
        <mxCell id="4rnoqBLfBF95VHf1nh43-27" style="edgeStyle=orthogonalEdgeStyle;rounded=0;orthogonalLoop=1;jettySize=auto;html=1;exitX=1;exitY=0.5;exitDx=0;exitDy=0;entryX=0;entryY=0.5;entryDx=0;entryDy=0;" edge="1" parent="4rnoqBLfBF95VHf1nh43-1" source="4rnoqBLfBF95VHf1nh43-28" target="4rnoqBLfBF95VHf1nh43-30">
          <mxGeometry relative="1" as="geometry" />
        </mxCell>
        <mxCell id="4rnoqBLfBF95VHf1nh43-28" value="generate:train" style="rounded=1;whiteSpace=wrap;html=1;arcSize=50;fillColor=#e1d5e7;strokeColor=#9673a6;" name="generate:train" vertex="1" parent="4rnoqBLfBF95VHf1nh43-1">
          <mxGeometry x="420" y="680" width="100" height="50" as="geometry" />
        </mxCell>
        <mxCell id="4rnoqBLfBF95VHf1nh43-29" style="edgeStyle=orthogonalEdgeStyle;rounded=0;orthogonalLoop=1;jettySize=auto;html=1;exitX=1;exitY=0.5;exitDx=0;exitDy=0;entryX=0;entryY=0.5;entryDx=0;entryDy=0;" edge="1" parent="4rnoqBLfBF95VHf1nh43-1" source="4rnoqBLfBF95VHf1nh43-30" target="4rnoqBLfBF95VHf1nh43-31">
          <mxGeometry relative="1" as="geometry" />
        </mxCell>
        <mxCell id="4rnoqBLfBF95VHf1nh43-30" value="model:semantic&#xa;CCSO-SOFLP" style="shape=hexagon;perimeter=hexagonPerimeter2;fillColor=#b0e3e6;strokeColor=#0e8088;" name="model" vertex="1" parent="4rnoqBLfBF95VHf1nh43-1">
          <mxGeometry x="580" y="680" width="120" height="50" as="geometry" />
        </mxCell>
        <mxCell id="H5ZNApfr9NK0vJG1CjWk-0" style="edgeStyle=orthogonalEdgeStyle;rounded=0;orthogonalLoop=1;jettySize=auto;html=1;exitX=1;exitY=0.5;exitDx=0;exitDy=0;entryX=0;entryY=0.5;entryDx=0;entryDy=0;" edge="1" parent="4rnoqBLfBF95VHf1nh43-1" source="4rnoqBLfBF95VHf1nh43-31" target="4rnoqBLfBF95VHf1nh43-33">
          <mxGeometry relative="1" as="geometry" />
        </mxCell>
        <mxCell id="4rnoqBLfBF95VHf1nh43-31" value="infer:deduce" style="rounded=1;whiteSpace=wrap;html=1;arcSize=50;fillColor=#bac8d3;strokeColor=#23445d;" name="infer:deduce" vertex="1" parent="4rnoqBLfBF95VHf1nh43-1" tooltip="⚠️ Node not part of any valid pattern.">
          <mxGeometry x="760" y="680" width="100" height="50" as="geometry" />
        </mxCell>
        <mxCell id="4rnoqBLfBF95VHf1nh43-32" style="edgeStyle=orthogonalEdgeStyle;rounded=0;orthogonalLoop=1;jettySize=auto;html=1;entryX=0.5;entryY=1;entryDx=0;entryDy=0;" edge="1" parent="4rnoqBLfBF95VHf1nh43-1" source="4rnoqBLfBF95VHf1nh43-33" target="4rnoqBLfBF95VHf1nh43-36">
          <mxGeometry relative="1" as="geometry" />
        </mxCell>
        <mxCell id="4rnoqBLfBF95VHf1nh43-33" value="data&#xa;Pain Levels" style="rectangle;fillColor=#fff2cc;strokeColor=#d6b656;" name="data" vertex="1" parent="4rnoqBLfBF95VHf1nh43-1">
          <mxGeometry x="920" y="680" width="100" height="50" as="geometry" />
        </mxCell>
        <mxCell id="4rnoqBLfBF95VHf1nh43-34" style="edgeStyle=orthogonalEdgeStyle;rounded=0;orthogonalLoop=1;jettySize=auto;html=1;exitX=0.5;exitY=0;exitDx=0;exitDy=0;entryX=0.5;entryY=1;entryDx=0;entryDy=0;" edge="1" parent="4rnoqBLfBF95VHf1nh43-1" source="4rnoqBLfBF95VHf1nh43-35" target="4rnoqBLfBF95VHf1nh43-31">
          <mxGeometry relative="1" as="geometry" />
        </mxCell>
        <mxCell id="4rnoqBLfBF95VHf1nh43-35" value="data:images&#xa;fMRI Images" style="rectangle;fillColor=#fff2cc;strokeColor=#d6b656;" name="data" vertex="1" parent="4rnoqBLfBF95VHf1nh43-1" tooltip="⚠️ Node not part of any valid pattern.">
          <mxGeometry x="760" y="770" width="100" height="50" as="geometry" />
        </mxCell>
        <mxCell id="H5ZNApfr9NK0vJG1CjWk-1" style="edgeStyle=orthogonalEdgeStyle;rounded=0;orthogonalLoop=1;jettySize=auto;html=1;exitX=1;exitY=0.5;exitDx=0;exitDy=0;entryX=0;entryY=0.5;entryDx=0;entryDy=0;" edge="1" parent="4rnoqBLfBF95VHf1nh43-1" source="4rnoqBLfBF95VHf1nh43-36" target="4rnoqBLfBF95VHf1nh43-37">
          <mxGeometry relative="1" as="geometry" />
        </mxCell>
        <mxCell id="4rnoqBLfBF95VHf1nh43-36" value="transform:embed" style="rounded=1;whiteSpace=wrap;html=1;arcSize=50;fillColor=#f8cecc;strokeColor=#b85450;" name="transform" vertex="1" parent="4rnoqBLfBF95VHf1nh43-1">
          <mxGeometry x="1080" y="600" width="100" height="50" as="geometry" />
        </mxCell>
        <mxCell id="4rnoqBLfBF95VHf1nh43-37" value="symbol&#xa;Pain Levels" style="rectangle;fillColor=#dae8fc;strokeColor=#6c8ebf;" name="symbol" vertex="1" parent="4rnoqBLfBF95VHf1nh43-1" tooltip="⚠️ Node not part of any valid pattern.">
          <mxGeometry x="1240" y="600" width="100" height="50" as="geometry" />
        </mxCell>
      </root>
    </mxGraphModel>
  </diagram>
</mxfile>
